<svg width="18" height="18" viewBox="0 0 18 18" fill="none" xmlns="http://www.w3.org/2000/svg">
<path d="M8.99862 4.95939L4.15662 3.87939C3.94873 3.83296 3.73306 3.83385 3.52556 3.88201C3.31806 3.93017 3.12404 4.02436 2.95785 4.15762C2.79167 4.29088 2.65756 4.45979 2.56547 4.65187C2.47337 4.84395 2.42563 5.05427 2.42578 5.26729V12.6141C2.42581 12.9373 2.53602 13.2509 2.73821 13.503C2.94041 13.7552 3.22252 13.9308 3.53799 14.0011L8.99862 15.2175M8.99862 4.95939L13.8406 3.87939C14.0484 3.83314 14.2639 3.83414 14.4712 3.88232C14.6785 3.9305 14.8723 4.02464 15.0384 4.15777C15.2044 4.29091 15.3385 4.45964 15.4306 4.65152C15.5227 4.84339 15.5705 5.0535 15.5705 5.26634V12.6132C15.5705 12.9363 15.4605 13.2497 15.2585 13.5018C15.0564 13.7539 14.7746 13.9297 14.4593 14.0001L8.99862 15.2175M8.99862 4.95939V15.2175" stroke="white" stroke-width="1.06579" stroke-linecap="round" stroke-linejoin="round"/>
</svg>
