<svg width="16" height="16" viewBox="0 0 16 16" fill="none" xmlns="http://www.w3.org/2000/svg">
<path d="M15.9993 7.4018L7.99953 16.0003L0 7.4018L3.69602 3.84961H12.3035L15.9993 7.4018Z" fill="#45B2EF"/>
<path d="M4.24564 7.4018H0L3.69602 3.84961L4.24564 7.4018Z" fill="#E0B42C"/>
<path d="M7.99962 15.9998L0 7.40137H4.24562L7.99962 15.9998Z" fill="#D5A91F"/>
<path d="M8.00009 15.9998L4.24609 7.40137H11.7541L8.00009 15.9998Z" fill="#D9BD65"/>
<path d="M11.7541 7.4018H4.24609L7.99999 3.84961L11.7541 7.4018Z" fill="#F4D67B"/>
<path d="M15.9995 7.4018H11.7539L12.3037 3.84961L15.9995 7.4018Z" fill="#E0B42C"/>
<path d="M15.9996 7.40137L8 15.9998L11.754 7.40137H15.9996Z" fill="#D5A91F"/>
<path d="M7.99883 3.84961L4.24493 7.4018L3.69531 3.84961H7.99883Z" fill="#F1C647"/>
<path d="M12.3039 3.84961L11.7541 7.4018L8 3.84961H12.3039Z" fill="#F1C647"/>
<path d="M8.00565 1.846C7.89468 1.846 7.80469 1.75846 7.80469 1.65052V0.195487C7.80469 0.0875391 7.89468 0 8.00565 0C8.11661 0 8.2066 0.0875391 8.2066 0.195487V1.65052C8.2066 1.75846 8.11663 1.846 8.00565 1.846Z" fill="#F1C647"/>
<path d="M5.77226 2.60581C5.70904 2.60581 5.6468 2.57688 5.6077 2.52273L4.74752 1.33235C4.68367 1.24401 4.70556 1.12208 4.79635 1.06C4.88718 0.997891 5.01252 1.01918 5.07632 1.1075L5.93651 2.29788C6.00035 2.38622 5.97847 2.50815 5.88767 2.57023C5.85251 2.59426 5.81217 2.60581 5.77226 2.60581Z" fill="#F1C647"/>
<path d="M10.2281 2.60578C10.1882 2.60578 10.1479 2.59423 10.1127 2.5702C10.022 2.50812 10.0001 2.38619 10.0639 2.29785L10.9241 1.10747C10.9879 1.01919 11.1132 0.997903 11.2041 1.05997C11.2948 1.12206 11.3167 1.24398 11.2529 1.33232L10.3927 2.5227C10.3536 2.57681 10.2914 2.60578 10.2281 2.60578Z" fill="#F1C647"/>
</svg>
