<svg width="10" height="15" viewBox="0 0 10 15" fill="none" xmlns="http://www.w3.org/2000/svg">
<path d="M5 7.5C5 6.83696 5.26339 6.20107 5.73223 5.73223C6.20107 5.26339 6.83696 5 7.5 5C8.16304 5 8.79893 5.26339 9.26777 5.73223C9.73661 6.20107 10 6.83696 10 7.5C10 8.16304 9.73661 8.79893 9.26777 9.26777C8.79893 9.73661 8.16304 10 7.5 10C6.83696 10 6.20107 9.73661 5.73223 9.26777C5.26339 8.79893 5 8.16304 5 7.5Z" fill="#1ABCFE"/>
<path d="M0 12.5C0 11.837 0.263392 11.2011 0.732233 10.7322C1.20107 10.2634 1.83696 10 2.5 10H5V12.5C5 13.163 4.73661 13.7989 4.26777 14.2678C3.79893 14.7366 3.16304 15 2.5 15C1.83696 15 1.20107 14.7366 0.732233 14.2678C0.263392 13.7989 0 13.163 0 12.5H0Z" fill="#0ACF83"/>
<path d="M5 0V5H7.5C8.16304 5 8.79893 4.73661 9.26777 4.26777C9.73661 3.79893 10 3.16304 10 2.5C10 1.83696 9.73661 1.20107 9.26777 0.732233C8.79893 0.263392 8.16304 0 7.5 0L5 0Z" fill="#FF7262"/>
<path d="M0 2.5C0 3.16304 0.263392 3.79893 0.732233 4.26777C1.20107 4.73661 1.83696 5 2.5 5H5V0H2.5C1.83696 0 1.20107 0.263392 0.732233 0.732233C0.263392 1.20107 0 1.83696 0 2.5H0Z" fill="#F24E1E"/>
<path d="M0 7.5C0 8.16304 0.263392 8.79893 0.732233 9.26777C1.20107 9.73661 1.83696 10 2.5 10H5V5H2.5C1.83696 5 1.20107 5.26339 0.732233 5.73223C0.263392 6.20107 0 6.83696 0 7.5H0Z" fill="#A259FF"/>
</svg>
