<svg width="40" height="40" viewBox="0 0 40 40" fill="none" xmlns="http://www.w3.org/2000/svg">
<path d="M37.3154 2.98913C37.3011 2.92004 37.2674 2.85644 37.2183 2.8058C37.1692 2.75515 37.1066 2.71956 37.038 2.7032C32.4622 1.58445 21.8896 5.57117 16.1615 11.2969C15.1398 12.3103 14.2084 13.4109 13.3779 14.586C11.6115 14.4298 9.84505 14.5602 8.33958 15.2165C4.09192 17.086 2.8552 21.9641 2.51067 24.0626C2.49113 24.1774 2.4985 24.2953 2.5322 24.4068C2.56591 24.5183 2.62503 24.6205 2.70492 24.7053C2.7848 24.7901 2.88327 24.8552 2.99258 24.8955C3.1019 24.9358 3.21907 24.9502 3.33489 24.9376L10.156 24.1852C10.1609 24.6995 10.1919 25.2132 10.249 25.7243C10.2833 26.0792 10.4408 26.4109 10.6943 26.6618L13.3357 29.2969C13.5868 29.55 13.9183 29.7076 14.2732 29.7423C14.7814 29.7991 15.2922 29.8301 15.8036 29.8352L15.0552 36.6477C15.0427 36.7635 15.0572 36.8806 15.0976 36.9898C15.1379 37.0991 15.2031 37.1975 15.2878 37.2773C15.3726 37.3572 15.4747 37.4163 15.5862 37.4501C15.6976 37.4838 15.8154 37.4913 15.9302 37.472C18.0247 37.136 22.9115 35.8993 24.77 31.6516C25.4263 30.1462 25.5607 28.3884 25.4091 26.6305C26.5871 25.7999 27.6905 24.8683 28.7068 23.8462C34.4529 18.129 38.4169 7.79226 37.3154 2.98913ZM22.974 17.0259C22.4493 16.5015 22.0919 15.8333 21.947 15.1058C21.8021 14.3783 21.8762 13.6242 22.16 12.9388C22.4437 12.2535 22.9243 11.6677 23.5411 11.2555C24.1578 10.8433 24.8829 10.6233 25.6247 10.6233C26.3665 10.6233 27.0916 10.8433 27.7084 11.2555C28.3251 11.6677 28.8058 12.2535 29.0895 12.9388C29.3733 13.6242 29.4474 14.3783 29.3025 15.1058C29.1576 15.8333 28.8002 16.5015 28.2755 17.0259C27.9276 17.3743 27.5144 17.6507 27.0595 17.8393C26.6047 18.0279 26.1171 18.125 25.6247 18.125C25.1323 18.125 24.6448 18.0279 24.1899 17.8393C23.7351 17.6507 23.3219 17.3743 22.974 17.0259Z" fill="#2E2E2E"/>
<path d="M13.1562 31.2055C12.7281 31.6344 12.0414 31.8016 11.2148 31.9445C9.35781 32.2609 7.71797 30.6563 8.05156 28.7789C8.17891 28.0672 8.55547 27.0695 8.78984 26.8352C8.84107 26.7849 8.87517 26.7198 8.8873 26.6491C8.89942 26.5784 8.88896 26.5056 8.85739 26.4412C8.82582 26.3768 8.77475 26.3239 8.71144 26.2902C8.64812 26.2564 8.57578 26.2434 8.50469 26.2531C7.46622 26.3802 6.50011 26.851 5.76016 27.5906C3.92344 29.4289 3.75 36.25 3.75 36.25C3.75 36.25 10.575 36.0766 12.4117 34.2383C13.1536 33.4989 13.6251 32.5313 13.75 31.4914C13.7789 31.1648 13.3813 30.9703 13.1562 31.2055Z" fill="#FD4F12"/>
</svg>
