<svg width="20" height="20" viewBox="0 0 20 20" fill="none" xmlns="http://www.w3.org/2000/svg">
<path d="M13.0314 2.5H6.96858C4.5046 2.5 2.5 4.5046 2.5 6.96858V13.0314C2.5 15.4954 4.5046 17.5 6.96858 17.5H13.0314C15.4954 17.5 17.5 15.4954 17.5 13.0314V6.96858C17.5 4.5046 15.4954 2.5 13.0314 2.5ZM15.991 13.0314C15.991 14.6659 14.6659 15.991 13.0314 15.991H6.96858C5.33406 15.991 4.009 14.6659 4.009 13.0314V6.96858C4.009 5.33404 5.33406 4.009 6.96858 4.009H13.0314C14.6659 4.009 15.991 5.33404 15.991 6.96858V13.0314Z" fill="#B8B8B8"/>
<path d="M10.0006 6.12012C7.86145 6.12012 6.12109 7.86047 6.12109 9.99962C6.12109 12.1388 7.86145 13.8792 10.0006 13.8792C12.1398 13.8792 13.8802 12.1388 13.8802 9.99962C13.8802 7.86044 12.1398 6.12012 10.0006 6.12012ZM10.0006 12.3702C8.69141 12.3702 7.63009 11.3089 7.63009 9.99965C7.63009 8.69043 8.69143 7.62912 10.0006 7.62912C11.3098 7.62912 12.3712 8.69043 12.3712 9.99965C12.3712 11.3088 11.3098 12.3702 10.0006 12.3702Z" fill="#B8B8B8"/>
<path d="M13.8866 7.07896C14.4001 7.07896 14.8163 6.66276 14.8163 6.14934C14.8163 5.63593 14.4001 5.21973 13.8866 5.21973C13.3732 5.21973 12.957 5.63593 12.957 6.14934C12.957 6.66276 13.3732 7.07896 13.8866 7.07896Z" fill="#B8B8B8"/>
</svg>
