<svg width="18" height="18" viewBox="0 0 18 18" fill="none" xmlns="http://www.w3.org/2000/svg">
<path d="M14.356 5.39325V12.607H15.4275V5.39325H14.356ZM12.6057 14.3572H5.39203V15.4287H12.6057V14.3572ZM3.64174 12.607V5.39325H2.57031V12.607H3.64174ZM5.39203 3.64296H12.6057V2.57153H5.39203V3.64296ZM5.39203 14.3572C4.98317 14.3572 4.70803 14.3572 4.49717 14.3401C4.29146 14.323 4.19374 14.293 4.1286 14.2604L3.6426 15.2144C3.88346 15.337 4.13888 15.3858 4.40974 15.4072C4.67546 15.4287 5.00117 15.4287 5.39203 15.4287V14.3572ZM2.57031 12.607C2.57031 12.9987 2.57031 13.3244 2.59174 13.5892C2.61403 13.861 2.66203 14.1155 2.7846 14.3564L3.73946 13.8695C3.70603 13.8052 3.67603 13.7067 3.65974 13.5018C3.6426 13.2901 3.64174 13.0158 3.64174 12.607H2.57031ZM4.1286 14.2604C3.96051 14.1747 3.82481 14.0378 3.73946 13.8695L2.7846 14.3564C2.97317 14.725 3.27317 15.0267 3.6426 15.2144L4.1286 14.2604ZM14.356 12.607C14.356 13.0158 14.356 13.2901 14.3389 13.5018C14.3217 13.7075 14.2917 13.8052 14.2592 13.8704L15.2132 14.3564C15.3357 14.1155 15.3846 13.861 15.406 13.5892C15.4275 13.3235 15.4275 12.9978 15.4275 12.607H14.356ZM12.6057 15.4287C12.9975 15.4287 13.3232 15.4287 13.588 15.4072C13.8597 15.385 14.1143 15.337 14.3552 15.2144L13.8683 14.2604C13.804 14.293 13.7055 14.323 13.5006 14.3392C13.2889 14.3564 13.0146 14.3572 12.6057 14.3572V15.4287ZM14.2592 13.8695C14.1735 14.0375 14.0363 14.1747 13.8683 14.2604L14.3552 15.2144C14.7237 15.0258 15.0255 14.7258 15.2132 14.3564L14.2592 13.8695ZM15.4275 5.39325C15.4275 5.00239 15.4275 4.67582 15.406 4.41096C15.3837 4.1401 15.3357 3.88468 15.2132 3.64382L14.2592 4.13068C14.2917 4.19496 14.3217 4.29353 14.338 4.49839C14.3552 4.70925 14.356 4.98439 14.356 5.39325H15.4275ZM12.6057 3.64296C13.0146 3.64296 13.2889 3.64296 13.5006 3.6601C13.7063 3.67725 13.804 3.70725 13.8692 3.74068L14.3552 2.78582C14.1143 2.66325 13.8597 2.61439 13.588 2.59296C13.3223 2.57153 12.9966 2.57153 12.6057 2.57153V3.64296ZM15.2132 3.64382C15.0247 3.27486 14.7239 2.97465 14.3552 2.78582L13.8692 3.74068C14.0372 3.82639 14.1743 3.96268 14.26 4.13068L15.2132 3.64382ZM3.64174 5.39325C3.64174 4.98525 3.64174 4.70925 3.65888 4.49839C3.67603 4.29268 3.70603 4.19496 3.73946 4.12982L2.7846 3.64468C2.66203 3.88553 2.61317 4.14096 2.59174 4.41182C2.57031 4.67668 2.57031 5.00239 2.57031 5.39325H3.64174ZM5.39203 2.57153C5.00031 2.57153 4.6746 2.57153 4.40974 2.59296C4.13888 2.61525 3.88346 2.66325 3.6426 2.78582L4.12946 3.74068C4.19374 3.70725 4.29231 3.67725 4.49717 3.66096C4.70803 3.64382 4.98317 3.64296 5.39203 3.64296V2.57153ZM3.73946 4.12982C3.82517 3.96182 3.96146 3.82553 4.12946 3.74068L3.6426 2.78582C3.27403 2.97439 2.97146 3.27439 2.78374 3.64382L3.73946 4.12982Z" fill="white"/>
<path d="M7.9269 3.10725V2.57153H6.85547V3.10725H7.9269ZM6.85547 14.893V15.4287H7.9269V14.893H6.85547ZM7.9269 9.0001V3.10725H6.85547V9.0001H7.9269ZM6.85547 9.0001V14.893H7.9269V9.0001H6.85547Z" fill="white"/>
<path d="M7.57031 9H14.7137" stroke="white" stroke-width="1.07143"/>
</svg>
