<svg width="1274" height="288" viewBox="0 0 1274 288" fill="none" xmlns="http://www.w3.org/2000/svg">
<g filter="url(#filter0_ii_5148_6470)">
<path d="M195.198 105.2C208.798 91.6002 225.065 84.8002 243.998 84.8002C263.198 84.8002 279.465 91.6002 292.798 105.2C306.398 118.8 313.198 135.067 313.198 154V283.2H262.398V154C262.398 148.934 260.532 144.667 256.798 141.2C253.332 137.467 249.065 135.6 243.998 135.6C238.932 135.6 234.532 137.467 230.798 141.2C227.332 144.667 225.598 148.934 225.598 154V218.8C225.598 237.734 218.798 254 205.198 267.6C191.865 281.2 175.598 288 156.398 288C137.465 288 121.198 281.2 107.598 267.6C94.2651 254 87.5984 237.734 87.5984 218.8V154C87.5984 148.934 85.7318 144.667 81.9984 141.2C78.5318 137.467 74.2651 135.6 69.1984 135.6C64.1318 135.6 59.7318 137.467 55.9984 141.2C52.5318 144.667 50.7984 148.934 50.7984 154V283.2H-0.00156111V154C-0.00156111 135.067 6.66511 118.8 19.9984 105.2C33.5984 91.6002 49.8651 84.8002 68.7984 84.8002C87.9984 84.8002 104.398 91.6002 117.998 105.2C131.598 118.8 138.398 135.067 138.398 154V218.8C138.398 223.867 140.132 228.134 143.598 231.6C147.332 235.067 151.732 236.8 156.798 236.8C161.865 236.8 166.132 235.067 169.598 231.6C173.065 228.134 174.798 223.867 174.798 218.8V154C174.798 135.067 181.598 118.8 195.198 105.2ZM368.667 113.2C387.6 94.2669 410.267 84.8002 436.667 84.8002C463.333 84.8002 486 94.2669 504.667 113.2C523.6 132.134 533.067 154.8 533.067 181.2V191.6C533.067 218 523.6 240.667 504.667 259.6C486 278.534 463.333 288 436.667 288C410.267 288 387.6 278.534 368.667 259.6C350 240.667 340.667 218 340.667 191.6V181.2C340.667 154.8 350 132.134 368.667 113.2ZM482.267 191.6V181.2C482.267 168.667 477.733 158 468.667 149.2C459.867 140.134 449.2 135.6 436.667 135.6C424.4 135.6 413.733 140.134 404.667 149.2C395.867 158 391.467 168.667 391.467 181.2V191.6C391.467 204.134 395.867 214.8 404.667 223.6C413.733 232.4 424.4 236.8 436.667 236.8C449.2 236.8 459.867 232.4 468.667 223.6C477.733 214.8 482.267 204.134 482.267 191.6ZM582.141 113.2C601.074 94.2669 623.741 84.8002 650.141 84.8002C676.808 84.8002 699.474 94.2669 718.141 113.2C737.074 132.134 746.541 154.8 746.541 181.2V191.6C746.541 218 737.074 240.667 718.141 259.6C699.474 278.534 676.808 288 650.141 288C623.741 288 601.074 278.534 582.141 259.6C563.474 240.667 554.141 218 554.141 191.6V181.2C554.141 154.8 563.474 132.134 582.141 113.2ZM695.741 191.6V181.2C695.741 168.667 691.208 158 682.141 149.2C673.341 140.134 662.674 135.6 650.141 135.6C637.874 135.6 627.208 140.134 618.141 149.2C609.341 158 604.941 168.667 604.941 181.2V191.6C604.941 204.134 609.341 214.8 618.141 223.6C627.208 232.4 637.874 236.8 650.141 236.8C662.674 236.8 673.341 232.4 682.141 223.6C691.208 214.8 695.741 204.134 695.741 191.6ZM800.015 113.2C818.949 94.2669 841.615 84.8002 868.015 84.8002C894.682 84.8002 917.349 94.2669 936.015 113.2C954.949 132.134 964.415 154.8 964.415 181.2V283.2H913.615V181.2C913.615 168.667 909.082 158 900.015 149.2C891.215 140.134 880.682 135.6 868.415 135.6C862.015 135.6 856.015 136.8 850.415 139.2C844.815 141.6 840.015 144.934 836.015 149.2C832.015 153.2 828.815 158 826.415 163.6C824.015 169.2 822.815 175.067 822.815 181.2V283.2H772.015V181.2C772.015 154.8 781.349 132.134 800.015 113.2ZM1135.28 89.6002H1186.08V191.6C1186.08 218.267 1176.62 241.067 1157.68 260C1139.02 278.667 1116.35 288 1089.68 288C1063.28 288 1040.62 278.667 1021.68 260C1003.02 241.067 993.683 218.267 993.683 191.6V89.6002H1044.48V191.6C1044.48 204.134 1048.88 214.934 1057.68 224C1066.75 232.8 1077.42 237.2 1089.68 237.2C1102.22 237.2 1112.88 232.8 1121.68 224C1130.75 214.934 1135.28 204.134 1135.28 191.6V89.6002ZM1270.57 283.2H1219.37V89.6002H1270.57V283.2ZM1244.97 57.6002C1239.64 57.6002 1234.7 56.4002 1230.17 54.0002C1225.9 51.3335 1222.44 47.8669 1219.77 43.6002C1217.37 39.0668 1216.17 34.1335 1216.17 28.8002C1216.17 20.8002 1218.97 14.0002 1224.57 8.40018C1230.17 2.80019 1236.97 0.000193596 1244.97 0.000193596C1252.97 0.000193596 1259.77 2.80019 1265.37 8.40018C1270.97 14.0002 1273.77 20.8002 1273.77 28.8002C1273.77 36.8002 1270.97 43.6002 1265.37 49.2002C1259.77 54.8002 1252.97 57.6002 1244.97 57.6002Z" fill="url(#paint0_linear_5148_6470)"/>
</g>
<defs>
<filter id="filter0_ii_5148_6470" x="-23.4578" y="-32.2868" width="1320.69" height="352.574" filterUnits="userSpaceOnUse" color-interpolation-filters="sRGB">
<feFlood flood-opacity="0" result="BackgroundImageFix"/>
<feBlend mode="normal" in="SourceGraphic" in2="BackgroundImageFix" result="shape"/>
<feColorMatrix in="SourceAlpha" type="matrix" values="0 0 0 0 0 0 0 0 0 0 0 0 0 0 0 0 0 0 127 0" result="hardAlpha"/>
<feOffset dx="23.4578" dy="-32.2868"/>
<feGaussianBlur stdDeviation="19.9544"/>
<feComposite in2="hardAlpha" operator="arithmetic" k2="-1" k3="1"/>
<feColorMatrix type="matrix" values="0 0 0 0 0.889977 0 0 0 0 0.889977 0 0 0 0 0.889977 0 0 0 0.5 0"/>
<feBlend mode="normal" in2="shape" result="effect1_innerShadow_5148_6470"/>
<feColorMatrix in="SourceAlpha" type="matrix" values="0 0 0 0 0 0 0 0 0 0 0 0 0 0 0 0 0 0 127 0" result="hardAlpha"/>
<feOffset dx="-23.4578" dy="32.2868"/>
<feGaussianBlur stdDeviation="19.9544"/>
<feComposite in2="hardAlpha" operator="arithmetic" k2="-1" k3="1"/>
<feColorMatrix type="matrix" values="0 0 0 0 0.581647 0 0 0 0 0.581647 0 0 0 0 0.581647 0 0 0 0.5 0"/>
<feBlend mode="normal" in2="effect1_innerShadow_5148_6470" result="effect2_innerShadow_5148_6470"/>
</filter>
<linearGradient id="paint0_linear_5148_6470" x1="963.398" y1="-129.258" x2="817.999" y2="420.666" gradientUnits="userSpaceOnUse">
<stop offset="1" stop-color="#DDDDDD"/>
<stop stop-color="#D5D5D5"/>
</linearGradient>
</defs>
</svg>
