<svg width="18" height="18" viewBox="0 0 18 18" fill="none" xmlns="http://www.w3.org/2000/svg">
<path d="M3.3955 12.937L1.3125 15.08M5.0625 14.652L3.8125 15.937M2.0625 9.18695C2.0625 9.18695 4.8895 10.515 6.1865 11.812C7.4845 13.11 8.8115 15.937 8.8115 15.937L10.9575 13.945C11.1089 13.8045 11.2297 13.6343 11.3123 13.4451C11.3949 13.2558 11.4375 13.0515 11.4375 12.845V11.25C14.4375 9.74995 16.3115 7.31195 15.9375 2.06195C10.6875 1.68695 8.2495 3.56195 6.7495 6.56195H5.1535C4.94698 6.56193 4.74268 6.60455 4.5534 6.68714C4.36412 6.76974 4.19393 6.89053 4.0535 7.04195L2.0625 9.18695ZM12.9365 6.37495C12.9365 6.72292 12.7983 7.05663 12.5522 7.30268C12.3062 7.54872 11.9725 7.68695 11.6245 7.68695C11.2765 7.68695 10.9428 7.54872 10.6968 7.30268C10.4507 7.05663 10.3125 6.72292 10.3125 6.37495C10.3125 6.02699 10.4507 5.69328 10.6968 5.44723C10.9428 5.20118 11.2765 5.06295 11.6245 5.06295C11.9725 5.06295 12.3062 5.20118 12.5522 5.44723C12.7983 5.69328 12.9365 6.02699 12.9365 6.37495Z" stroke="white" stroke-width="1.125" stroke-linecap="round" stroke-linejoin="round"/>
</svg>
