<svg width="24" height="24" viewBox="0 0 24 24" fill="none" xmlns="http://www.w3.org/2000/svg">
<path fill-rule="evenodd" clip-rule="evenodd" d="M10.864 3.575C8.73117 3.86775 6.78881 4.95872 5.42897 6.6277C4.06912 8.29669 3.39306 10.4194 3.53723 12.5674C3.6814 14.7154 4.63508 16.7287 6.20576 18.201C7.77645 19.6733 9.84718 20.4949 12 20.5C16.31 20.5 19.87 17.293 20.425 13.136C19.0873 13.7264 17.6023 13.8985 16.165 13.6296C14.7277 13.3608 13.4052 12.6637 12.3713 11.6297C11.3373 10.5958 10.6402 9.27335 10.3714 7.83605C10.1025 6.39874 10.2746 4.91374 10.865 3.576L10.864 3.575ZM2 12C2 6.477 6.477 2 12 2C12.068 2 12.136 2.00067 12.204 2.002C12.3402 2.00477 12.4731 2.04459 12.5883 2.11716C12.7036 2.18974 12.7969 2.29234 12.8583 2.41395C12.9197 2.53556 12.9468 2.67158 12.9367 2.80743C12.9266 2.94327 12.8797 3.0738 12.801 3.185C12.0186 4.29249 11.6528 5.64083 11.7682 6.99187C11.8836 8.34291 12.4727 9.60971 13.4315 10.5685C14.3903 11.5273 15.6571 12.1164 17.0081 12.2318C18.3592 12.3472 19.7075 11.9814 20.815 11.199C20.9262 11.1203 21.0567 11.0734 21.1926 11.0633C21.3284 11.0532 21.4644 11.0803 21.5861 11.1417C21.7077 11.2031 21.8103 11.2964 21.8828 11.4117C21.9554 11.5269 21.9952 11.6598 21.998 11.796L22 12C22 17.523 17.523 22 12 22C6.477 22 2 17.523 2 12Z" fill="#FD4F12"/>
<path d="M16.2392 5.01615L17.0512 3.39315C17.0927 3.31021 17.1565 3.24047 17.2355 3.19174C17.3144 3.143 17.4054 3.11719 17.4982 3.11719C17.5909 3.11719 17.6819 3.143 17.7608 3.19174C17.8398 3.24047 17.9036 3.31021 17.9452 3.39315L18.7572 5.01615C18.8056 5.11313 18.8842 5.19174 18.9812 5.24015L20.6042 6.05215C20.6871 6.09372 20.7568 6.15755 20.8056 6.23649C20.8543 6.31543 20.8801 6.40638 20.8801 6.49915C20.8801 6.59193 20.8543 6.68287 20.8056 6.76182C20.7568 6.84076 20.6871 6.90458 20.6042 6.94615L18.9812 7.75815C18.8843 7.80631 18.8057 7.88455 18.7572 7.98115L17.9452 9.60415C17.9036 9.68709 17.8398 9.75683 17.7608 9.80557C17.6819 9.85431 17.5909 9.88012 17.4982 9.88012C17.4054 9.88012 17.3144 9.85431 17.2355 9.80557C17.1565 9.75683 17.0927 9.68709 17.0512 9.60415L16.2392 7.98115C16.1908 7.88471 16.1126 7.80648 16.0162 7.75815L14.3932 6.94615C14.3102 6.90458 14.2405 6.84076 14.1917 6.76182C14.143 6.68287 14.1172 6.59193 14.1172 6.49915C14.1172 6.40638 14.143 6.31543 14.1917 6.23649C14.2405 6.15755 14.3102 6.09372 14.3932 6.05215L16.0162 5.24015C16.1128 5.19157 16.191 5.11297 16.2392 5.01615Z" fill="#FD4F12"/>
</svg>
