<svg width="24" height="24" viewBox="0 0 24 24" fill="none" xmlns="http://www.w3.org/2000/svg">
<path d="M17.25 18.25H19.5M3.75 16.75V5.75C3.75 5.21957 3.96071 4.71086 4.33579 4.33579C4.71086 3.96071 5.21957 3.75 5.75 3.75H18.25C18.7804 3.75 19.2891 3.96071 19.6642 4.33579C20.0393 4.71086 20.25 5.21957 20.25 5.75V8.75M3.75 16.75H1.75V18.25C1.75 18.7804 1.96071 19.2891 2.33579 19.6642C2.71086 20.0393 3.21957 20.25 3.75 20.25H14.25M3.75 16.75H14.25M20.25 8.75H16.25C15.7196 8.75 15.2109 8.96071 14.8358 9.33579C14.4607 9.71086 14.25 10.2196 14.25 10.75V19.25C14.25 19.7804 14.4607 20.2891 14.8358 20.6642C15.2109 21.0393 15.7196 21.25 16.25 21.25H20.25C20.7804 21.25 21.2891 21.0393 21.6642 20.6642C22.0393 20.2891 22.25 19.7804 22.25 19.25V10.75C22.25 10.2196 22.0393 9.71086 21.6642 9.33579C21.2891 8.96071 20.7804 8.75 20.25 8.75Z" stroke="#FD4F12" stroke-width="1.5" stroke-linecap="round" stroke-linejoin="round"/>
</svg>
