<svg width="24" height="24" viewBox="0 0 24 24" fill="none" xmlns="http://www.w3.org/2000/svg">
<path d="M12 21.25C14.4533 21.25 16.806 20.2754 18.5407 18.5407C20.2754 16.806 21.25 14.4533 21.25 12C21.25 9.54675 20.2754 7.19397 18.5407 5.45926C16.806 3.72455 14.4533 2.75 12 2.75C9.54675 2.75 7.19397 3.72455 5.45926 5.45926C3.72455 7.19397 2.75 9.54675 2.75 12C2.75 14.4533 3.72455 16.806 5.45926 18.5407C7.19397 20.2754 9.54675 21.25 12 21.25Z" stroke="#FD4F12" stroke-width="1.5" stroke-linecap="round" stroke-linejoin="round"/>
<path d="M14.2461 16.25C12.7461 14.74 11.9981 13.234 11.9961 11.25" stroke="#FD4F12" stroke-width="1.5" stroke-linecap="round" stroke-linejoin="round"/>
<path d="M9.75 16.25C11.29 14.758 12 13.234 11.998 11.25M8.75 10.691C8.75 10.691 10.72 10.956 12 10.956C13.279 10.956 15.25 10.691 15.25 10.691M12.75 8C12.75 8.19891 12.671 8.38968 12.5303 8.53033C12.3897 8.67098 12.1989 8.75 12 8.75C11.8011 8.75 11.6103 8.67098 11.4697 8.53033C11.329 8.38968 11.25 8.19891 11.25 8C11.25 7.80109 11.329 7.61032 11.4697 7.46967C11.6103 7.32902 11.8011 7.25 12 7.25C12.1989 7.25 12.3897 7.32902 12.5303 7.46967C12.671 7.61032 12.75 7.80109 12.75 8Z" stroke="#FD4F12" stroke-width="1.5" stroke-linecap="round" stroke-linejoin="round"/>
</svg>
