<svg width="24" height="24" viewBox="0 0 24 24" fill="none" xmlns="http://www.w3.org/2000/svg">
<path d="M15.75 6V7.25C15.75 7.51522 15.8554 7.76957 16.0429 7.95711C16.2304 8.14464 16.4848 8.25 16.75 8.25H18M15.75 6V4.75C15.75 4.48478 15.8554 4.23043 16.0429 4.04289C16.2304 3.85536 16.4848 3.75 16.75 3.75H19.25C19.5152 3.75 19.7696 3.85536 19.9571 4.04289C20.1446 4.23043 20.25 4.48478 20.25 4.75V7.25C20.25 7.51522 20.1446 7.76957 19.9571 7.95711C19.7696 8.14464 19.5152 8.25 19.25 8.25H18M15.75 6H8.25M18 8.25V10.25M6 8.25V15.75M8 18V16.75C8 16.4848 7.89464 16.2304 7.70711 16.0429C7.51957 15.8554 7.26522 15.75 7 15.75H4.75C4.48478 15.75 4.23043 15.8554 4.04289 16.0429C3.85536 16.2304 3.75 16.4848 3.75 16.75V19.25C3.75 19.5152 3.85536 19.7696 4.04289 19.9571C4.23043 20.1446 4.48478 20.25 4.75 20.25H7C7.26522 20.25 7.51957 20.1446 7.70711 19.9571C7.89464 19.7696 8 19.5152 8 19.25V18ZM8 18H10.25M4.75 8.25H7.25C7.51522 8.25 7.76957 8.14464 7.95711 7.95711C8.14464 7.76957 8.25 7.51522 8.25 7.25V4.75C8.25 4.48478 8.14464 4.23043 7.95711 4.04289C7.76957 3.85536 7.51522 3.75 7.25 3.75H4.75C4.48478 3.75 4.23043 3.85536 4.04289 4.04289C3.85536 4.23043 3.75 4.48478 3.75 4.75V7.25C3.75 7.51522 3.85536 7.76957 4.04289 7.95711C4.23043 8.14464 4.48478 8.25 4.75 8.25ZM12.916 12.262L19.748 14.214C19.849 14.2433 19.9389 14.3019 20.0065 14.3824C20.0741 14.463 20.1161 14.5618 20.1274 14.6663C20.1387 14.7708 20.1186 14.8763 20.0697 14.9694C20.0209 15.0625 19.9454 15.1389 19.853 15.189L16.961 16.746C16.8699 16.7951 16.7951 16.8699 16.746 16.961L15.189 19.853C15.1389 19.9454 15.0625 20.0209 14.9694 20.0697C14.8763 20.1186 14.7708 20.1387 14.6663 20.1274C14.5618 20.1161 14.463 20.0741 14.3824 20.0065C14.3019 19.9389 14.2433 19.849 14.214 19.748L12.262 12.916C12.2364 12.8253 12.2355 12.7295 12.2593 12.6383C12.283 12.5471 12.3307 12.4639 12.3973 12.3973C12.4639 12.3307 12.5471 12.283 12.6383 12.2593C12.7295 12.2355 12.8253 12.2364 12.916 12.262Z" stroke="#FD4F12" stroke-width="1.5" stroke-linecap="round" stroke-linejoin="round"/>
</svg>
