<svg width="24" height="24" viewBox="0 0 24 24" fill="none" xmlns="http://www.w3.org/2000/svg">
<path d="M13.25 4.75H4.75C4.21957 4.75 3.71086 4.96071 3.33579 5.33579C2.96071 5.71086 2.75 6.21957 2.75 6.75V17.25C2.75 17.7804 2.96071 18.2891 3.33579 18.6642C3.71086 19.0393 4.21957 19.25 4.75 19.25H13.25M16.245 4.75H19.245C19.7754 4.75 20.2841 4.96071 20.6592 5.33579C21.0343 5.71086 21.245 6.21957 21.245 6.75V17.25C21.245 17.7804 21.0343 18.2891 20.6592 18.6642C20.2841 19.0393 19.7754 19.25 19.245 19.25H16.245M16.245 4.75V2.5M16.245 4.75V19.25M16.245 19.25V21.5M8.5 9.5L11 12L8.5 14.5" stroke="#FD4F12" stroke-width="1.5" stroke-linecap="round" stroke-linejoin="round"/>
</svg>
