<svg width="24" height="24" viewBox="0 0 24 24" fill="none" xmlns="http://www.w3.org/2000/svg">
<path d="M11.002 3.32539C11.3056 3.15059 11.6497 3.05859 12 3.05859C12.3503 3.05859 12.6944 3.15059 12.998 3.32539L19.248 6.92339C19.5525 7.09875 19.8055 7.35127 19.9814 7.65551C20.1573 7.95974 20.25 8.30496 20.25 8.65639V15.3444C20.25 15.6958 20.1573 16.041 19.9814 16.3453C19.8055 16.6495 19.5525 16.902 19.248 17.0774L12.998 20.6754C12.6944 20.8502 12.3503 20.9422 12 20.9422C11.6497 20.9422 11.3056 20.8502 11.002 20.6754L4.752 17.0774C4.44745 16.902 4.19448 16.6495 4.01858 16.3453C3.84267 16.041 3.75004 15.6958 3.75 15.3444V8.65639C3.75004 8.30496 3.84267 7.95974 4.01858 7.65551C4.19448 7.35127 4.44745 7.09875 4.752 6.92339L11.002 3.32539Z" stroke="#FD4F12" stroke-width="1.5" stroke-linecap="square"/>
<path d="M15.25 12C15.25 12.862 14.9076 13.6886 14.2981 14.2981C13.6886 14.9076 12.862 15.25 12 15.25C11.138 15.25 10.3114 14.9076 9.7019 14.2981C9.09241 13.6886 8.75 12.862 8.75 12C8.75 11.138 9.09241 10.3114 9.7019 9.7019C10.3114 9.09241 11.138 8.75 12 8.75C12.862 8.75 13.6886 9.09241 14.2981 9.7019C14.9076 10.3114 15.25 11.138 15.25 12Z" stroke="#FD4F12" stroke-width="1.5" stroke-linecap="square"/>
</svg>
