<svg width="24" height="24" viewBox="0 0 24 24" fill="none" xmlns="http://www.w3.org/2000/svg">
<path d="M10.25 9L7.957 11.293C7.76953 11.4805 7.66421 11.7348 7.66421 12C7.66421 12.2652 7.76953 12.5195 7.957 12.707L10.25 15M13.75 9L16.043 11.293C16.2305 11.4805 16.3358 11.7348 16.3358 12C16.3358 12.2652 16.2305 12.5195 16.043 12.707L13.75 15M5.75 20.25H18.25C18.7804 20.25 19.2891 20.0393 19.6642 19.6642C20.0393 19.2891 20.25 18.7804 20.25 18.25V5.75C20.25 5.21957 20.0393 4.71086 19.6642 4.33579C19.2891 3.96071 18.7804 3.75 18.25 3.75H5.75C5.21957 3.75 4.71086 3.96071 4.33579 4.33579C3.96071 4.71086 3.75 5.21957 3.75 5.75V18.25C3.75 18.7804 3.96071 19.2891 4.33579 19.6642C4.71086 20.0393 5.21957 20.25 5.75 20.25Z" stroke="#FD4F12" stroke-width="1.5" stroke-linecap="round" stroke-linejoin="round"/>
</svg>
