<svg width="24" height="24" viewBox="0 0 24 24" fill="none" xmlns="http://www.w3.org/2000/svg">
<path d="M11.25 4.75H4.75C4.21957 4.75 3.71086 4.96071 3.33579 5.33579C2.96071 5.71086 2.75 6.21957 2.75 6.75V17.25C2.75 17.7804 2.96071 18.2891 3.33579 18.6642C3.71086 19.0393 4.21957 19.25 4.75 19.25H11.25M11.25 4.75H19.25C19.7804 4.75 20.2891 4.96071 20.6642 5.33579C21.0393 5.71086 21.25 6.21957 21.25 6.75V17.25C21.25 17.7804 21.0393 18.2891 20.6642 18.6642C20.2891 19.0393 19.7804 19.25 19.25 19.25H11.25M11.25 4.75V19.25" stroke="#FD4F12" stroke-width="1.5" stroke-linecap="square" stroke-linejoin="round"/>
<path d="M6.25 8.5C6.25 8.69891 6.32902 8.88968 6.46967 9.03033C6.61032 9.17098 6.80109 9.25 7 9.25C7.19891 9.25 7.38968 9.17098 7.53033 9.03033C7.67098 8.88968 7.75 8.69891 7.75 8.5C7.75 8.30109 7.67098 8.11032 7.53033 7.96967C7.38968 7.82902 7.19891 7.75 7 7.75C6.80109 7.75 6.61032 7.82902 6.46967 7.96967C6.32902 8.11032 6.25 8.30109 6.25 8.5ZM6.25 12C6.25 12.1989 6.32902 12.3897 6.46967 12.5303C6.61032 12.671 6.80109 12.75 7 12.75C7.19891 12.75 7.38968 12.671 7.53033 12.5303C7.67098 12.3897 7.75 12.1989 7.75 12C7.75 11.8011 7.67098 11.6103 7.53033 11.4697C7.38968 11.329 7.19891 11.25 7 11.25C6.80109 11.25 6.61032 11.329 6.46967 11.4697C6.32902 11.6103 6.25 11.8011 6.25 12ZM6.25 15.5C6.25 15.6989 6.32902 15.8897 6.46967 16.0303C6.61032 16.171 6.80109 16.25 7 16.25C7.19891 16.25 7.38968 16.171 7.53033 16.0303C7.67098 15.8897 7.75 15.6989 7.75 15.5C7.75 15.3011 7.67098 15.1103 7.53033 14.9697C7.38968 14.829 7.19891 14.75 7 14.75C6.80109 14.75 6.61032 14.829 6.46967 14.9697C6.32902 15.1103 6.25 15.3011 6.25 15.5Z" fill="#FD4F12" stroke="#FD4F12" stroke-width="0.5"/>
</svg>
