<svg width="24" height="24" viewBox="0 0 24 24" fill="none" xmlns="http://www.w3.org/2000/svg">
<path d="M8.95685 5.04285L11.2928 2.70685C11.4804 2.51938 11.7347 2.41406 11.9998 2.41406C12.265 2.41406 12.5193 2.51938 12.7068 2.70685L15.0428 5.04285C15.2303 5.23038 15.3356 5.48468 15.3356 5.74985C15.3356 6.01501 15.2303 6.26932 15.0428 6.45685L12.7068 8.79285C12.5193 8.98032 12.265 9.08564 11.9998 9.08564C11.7347 9.08564 11.4804 8.98032 11.2928 8.79285L8.95685 6.45685C8.76938 6.26932 8.66406 6.01501 8.66406 5.74985C8.66406 5.48468 8.76938 5.23038 8.95685 5.04285ZM8.95685 17.5428L11.2928 15.2068C11.4804 15.0194 11.7347 14.9141 11.9998 14.9141C12.265 14.9141 12.5193 15.0194 12.7068 15.2068L15.0428 17.5428C15.2303 17.7304 15.3356 17.9847 15.3356 18.2498C15.3356 18.515 15.2303 18.7693 15.0428 18.9569L12.7068 21.2928C12.5193 21.4803 12.265 21.5856 11.9998 21.5856C11.7347 21.5856 11.4804 21.4803 11.2928 21.2928L8.95685 18.9569C8.76938 18.7693 8.66406 18.515 8.66406 18.2498C8.66406 17.9847 8.76938 17.7304 8.95685 17.5428ZM2.70685 11.2928L5.04285 8.95685C5.23038 8.76938 5.48468 8.66406 5.74985 8.66406C6.01501 8.66406 6.26932 8.76938 6.45685 8.95685L8.79285 11.2928C8.98032 11.4804 9.08564 11.7347 9.08564 11.9998C9.08564 12.265 8.98032 12.5193 8.79285 12.7068L6.45685 15.0428C6.26932 15.2303 6.01501 15.3356 5.74985 15.3356C5.48468 15.3356 5.23038 15.2303 5.04285 15.0428L2.70685 12.7068C2.51938 12.5193 2.41406 12.265 2.41406 11.9998C2.41406 11.7347 2.51938 11.4804 2.70685 11.2928ZM15.2068 11.2928L17.5428 8.95685C17.7304 8.76938 17.9847 8.66406 18.2498 8.66406C18.515 8.66406 18.7693 8.76938 18.9569 8.95685L21.2928 11.2928C21.4803 11.4804 21.5856 11.7347 21.5856 11.9998C21.5856 12.265 21.4803 12.5193 21.2928 12.7068L18.9569 15.0428C18.7693 15.2303 18.515 15.3356 18.2498 15.3356C17.9847 15.3356 17.7304 15.2303 17.5428 15.0428L15.2068 12.7068C15.0194 12.5193 14.9141 12.265 14.9141 11.9998C14.9141 11.7347 15.0194 11.4804 15.2068 11.2928Z" stroke="#FD4F12" stroke-width="1.5" stroke-linejoin="round"/>
</svg>
