<svg width="18" height="17" viewBox="0 0 18 17" fill="none" xmlns="http://www.w3.org/2000/svg">
<path d="M2.93944 12.7612L0.625 15.1423M4.79167 14.6667L3.40278 16.0945M1.45833 8.5945C1.45833 8.5945 4.59944 10.0701 6.04056 11.5112C7.48278 12.9534 8.95722 16.0945 8.95722 16.0945L11.3417 13.8812C11.5099 13.7251 11.6441 13.536 11.7359 13.3257C11.8277 13.1154 11.875 12.8884 11.875 12.6589V10.8867C15.2083 9.22005 17.2906 6.51116 16.875 0.67783C11.0417 0.261164 8.33278 2.3445 6.66611 5.67783H4.89278C4.66331 5.6778 4.43632 5.72516 4.226 5.81693C4.01569 5.9087 3.82659 6.04292 3.67056 6.21116L1.45833 8.5945ZM13.5406 5.47005C13.5406 5.85668 13.387 6.22747 13.1136 6.50086C12.8402 6.77424 12.4694 6.92783 12.0828 6.92783C11.6962 6.92783 11.3254 6.77424 11.052 6.50086C10.7786 6.22747 10.625 5.85668 10.625 5.47005C10.625 5.08343 10.7786 4.71263 11.052 4.43925C11.3254 4.16586 11.6962 4.01228 12.0828 4.01228C12.4694 4.01228 12.8402 4.16586 13.1136 4.43925C13.387 4.71263 13.5406 5.08343 13.5406 5.47005Z" stroke="#FD4F12" stroke-width="1.25" stroke-linecap="round" stroke-linejoin="round"/>
</svg>
