<svg width="18" height="18" viewBox="0 0 18 18" fill="none" xmlns="http://www.w3.org/2000/svg">
<path d="M2.9308 12.7502V5.25022H1.85938V12.7502H2.9308ZM15.0731 5.25022V12.7502H16.1445V5.25022H15.0731ZM14.1808 13.6434H3.82309V14.7148H14.1808V13.6434ZM3.82309 4.35707H14.1808V3.28564H3.82309V4.35707ZM15.0731 12.7502C15.0731 13.2431 14.6737 13.6434 14.1808 13.6434V14.7148C14.4388 14.7149 14.6943 14.6642 14.9326 14.5655C15.171 14.4668 15.3875 14.322 15.5699 14.1396C15.7523 13.9571 15.8969 13.7405 15.9955 13.5021C16.0941 13.2637 16.1447 13.0082 16.1445 12.7502H15.0731ZM16.1445 5.25022C16.1447 4.99223 16.0941 4.73674 15.9955 4.49834C15.8969 4.25994 15.7523 4.04332 15.5699 3.86085C15.3875 3.67839 15.171 3.53368 14.9326 3.43498C14.6943 3.33628 14.4388 3.28553 14.1808 3.28564V4.35707C14.6737 4.35707 15.0731 4.75736 15.0731 5.25022H16.1445ZM2.9308 5.25022C2.9308 4.75736 3.33023 4.35707 3.82309 4.35707V3.28564C3.56511 3.28553 3.30963 3.33628 3.07128 3.43498C2.83292 3.53368 2.61636 3.67839 2.43398 3.86085C2.2516 4.04332 2.10697 4.25994 2.00838 4.49834C1.90978 4.73674 1.85915 4.99223 1.85938 5.25022H2.9308ZM1.85938 12.7502C1.85915 13.0082 1.90978 13.2637 2.00838 13.5021C2.10697 13.7405 2.2516 13.9571 2.43398 14.1396C2.61636 14.322 2.83292 14.4668 3.07128 14.5655C3.30963 14.6642 3.56511 14.7149 3.82309 14.7148V13.6434C3.70581 13.6435 3.58966 13.6204 3.4813 13.5756C3.37293 13.5307 3.27448 13.4649 3.19159 13.382C3.1087 13.299 3.043 13.2005 2.99825 13.0921C2.9535 12.9837 2.93058 12.8675 2.9308 12.7502H1.85938Z" fill="white"/>
<path d="M8.46484 14.1791V14.7148H9.53627V14.1791H8.46484ZM9.53627 3.82136V3.28564H8.46484V3.82136H9.53627ZM9.53627 14.1791V3.82136H8.46484V14.1791H9.53627Z" fill="white"/>
</svg>
